<svg width="30" height="30" viewBox="0 0 30 30" fill="none" xmlns="http://www.w3.org/2000/svg">
<path d="M26.0532 21.4308C25.6373 22.3916 25.1451 23.276 24.5747 24.0891C23.7973 25.1976 23.1607 25.9648 22.6702 26.3909C21.9097 27.0902 21.0949 27.4484 20.2224 27.4688C19.596 27.4688 18.8406 27.2905 17.9614 26.929C17.0792 26.5691 16.2685 26.3909 15.5272 26.3909C14.7497 26.3909 13.9159 26.5691 13.0241 26.929C12.1309 27.2905 11.4113 27.479 10.8611 27.4976C10.0245 27.5333 9.19049 27.1649 8.35805 26.3909C7.82674 25.9275 7.16218 25.1331 6.36606 24.0076C5.51189 22.8058 4.80965 21.4122 4.25949 19.8233C3.6703 18.1072 3.37494 16.4454 3.37494 14.8365C3.37494 12.9935 3.77317 11.404 4.57081 10.072C5.19769 9.00208 6.03166 8.15809 7.07544 7.53851C8.11922 6.91893 9.24702 6.6032 10.4616 6.583C11.1261 6.583 11.9976 6.78856 13.0806 7.19256C14.1605 7.59792 14.854 7.80349 15.158 7.80349C15.3853 7.80349 16.1556 7.56312 17.4614 7.08392C18.6964 6.63952 19.7386 6.45552 20.5924 6.528C22.9061 6.71472 24.6443 7.62678 25.8003 9.26994C23.7311 10.5237 22.7075 12.2797 22.7279 14.5325C22.7465 16.2871 23.3831 17.7473 24.6341 18.9067C25.2011 19.4448 25.8342 19.8607 26.5387 20.156C26.3859 20.5991 26.2247 21.0235 26.0532 21.4308ZM20.7469 0.550157C20.7469 1.92547 20.2445 3.2096 19.2429 4.39817C18.0343 5.81115 16.5725 6.62764 14.9872 6.4988C14.967 6.33381 14.9553 6.16016 14.9553 5.97768C14.9553 4.65738 15.5301 3.2444 16.5507 2.08909C17.0603 1.50414 17.7084 1.01776 18.4944 0.629768C19.2786 0.247563 20.0204 0.0361957 20.7181 0C20.7384 0.183858 20.7469 0.367728 20.7469 0.550139V0.550157Z" fill="#CAFF33"/>
</svg>
