<svg width="24" height="25" viewBox="0 0 24 25" fill="none" xmlns="http://www.w3.org/2000/svg">
<path d="M12 15.5C13.6569 15.5 15 14.1569 15 12.5C15 10.8431 13.6569 9.5 12 9.5C10.3431 9.5 9 10.8431 9 12.5C9 14.1569 10.3431 15.5 12 15.5Z" fill="#59595A"/>
<path fill-rule="evenodd" clip-rule="evenodd" d="M1.32341 11.9467C2.81066 7.47571 7.02791 4.25 12.0005 4.25C16.9708 4.25 21.1864 7.47271 22.6755 11.9405C22.7959 12.3015 22.796 12.6922 22.6759 13.0533C21.1886 17.5243 16.9714 20.75 11.9988 20.75C7.02847 20.75 2.81284 17.5273 1.32374 13.0595C1.2034 12.6985 1.20328 12.3078 1.32341 11.9467ZM17.25 12.5C17.25 15.3995 14.8995 17.75 12 17.75C9.1005 17.75 6.75 15.3995 6.75 12.5C6.75 9.6005 9.1005 7.25 12 7.25C14.8995 7.25 17.25 9.6005 17.25 12.5Z" fill="#59595A"/>
</svg>
