<svg width="20" height="20" viewBox="0 0 20 20" fill="none" xmlns="http://www.w3.org/2000/svg">
<g opacity="0.969855" clip-path="url(#clip0_16_154)">
<path d="M19.7693 9.15407C17.8115 5.83178 14.1601 3.61133 10 3.61133C5.83821 3.61133 2.18766 5.83334 0.23078 9.15407C0.0796862 9.41046 0 9.70263 0 10.0002C0 10.2978 0.0796862 10.59 0.23078 10.8464C2.18859 14.1687 5.83995 16.3891 10 16.3891C14.1618 16.3891 17.8124 14.1671 19.7693 10.8464C19.9203 10.59 20 10.2978 20 10.0002C20 9.70262 19.9203 9.41046 19.7693 9.15407ZM10 14.7224C6.43904 14.7224 3.33019 12.8231 1.66668 10.0002C3.19991 7.39838 5.96102 5.58112 9.17231 5.31247C9.51245 5.66265 9.72224 6.14015 9.72224 6.66688C9.72224 7.74077 8.85168 8.61133 7.77779 8.61133C6.70391 8.61133 5.83335 7.74077 5.83335 6.66688L5.83338 6.66543C5.47898 7.3281 5.27779 8.08508 5.27779 8.88911C5.27779 11.4971 7.392 13.6113 10 13.6113C12.608 13.6113 14.7222 11.4971 14.7222 8.88911C14.7222 7.81164 14.3611 6.81865 13.7537 6.024C15.6842 6.82793 17.292 8.23306 18.3334 10.0002C16.6699 12.8231 13.561 14.7224 10 14.7224Z" fill="white" stroke="white" stroke-width="0.0347222"/>
</g>
<defs>
<clipPath id="clip0_16_154">
<rect width="20" height="20" fill="white"/>
</clipPath>
</defs>
</svg>
