<svg width="52" height="53" viewBox="0 0 52 53" fill="none" xmlns="http://www.w3.org/2000/svg">
<rect y="0.866211" width="52" height="52" rx="26" fill="#CAFF33"/>
<g clip-path="url(#clip0_155_994)">
<path d="M38 26.8662C38 20.2388 32.6274 14.8662 26 14.8662C19.3726 14.8662 14 20.2388 14 26.8662C14 32.8557 18.3882 37.8202 24.125 38.7204V30.335H21.0781V26.8662H24.125V24.2225C24.125 21.215 25.9166 19.5537 28.6576 19.5537C29.9701 19.5537 31.3438 19.7881 31.3438 19.7881V22.7412H29.8306C28.34 22.7412 27.875 23.6663 27.875 24.6162V26.8662H31.2031L30.6711 30.335H27.875V38.7204C33.6118 37.8202 38 32.8557 38 26.8662Z" fill="#262626"/>
</g>
<defs>
<clipPath id="clip0_155_994">
<rect width="24" height="24" fill="white" transform="translate(14 14.8662)"/>
</clipPath>
</defs>
</svg>
