<svg width="30" height="30" viewBox="0 0 30 30" fill="none" xmlns="http://www.w3.org/2000/svg">
<g clip-path="url(#clip0_195_2055)">
<path d="M29.7076 15.3448C29.7076 14.3252 29.6249 13.3 29.4485 12.2969H15.3V18.0731H23.4022C23.066 19.936 21.9857 21.584 20.4039 22.6312V26.3792H25.2376C28.0761 23.7667 29.7076 19.9085 29.7076 15.3448Z" fill="#CAFF33"/>
<path d="M15.3 30.0007C19.3456 30.0007 22.7573 28.6724 25.2431 26.3795L20.4093 22.6316C19.0645 23.5465 17.3283 24.0646 15.3055 24.0646C11.3922 24.0646 8.07421 21.4245 6.88369 17.875H1.89563V21.7387C4.44202 26.8039 9.6285 30.0007 15.3 30.0007Z" fill="#CAFF33"/>
<path d="M6.87822 17.8744C6.24989 16.0115 6.24989 13.9942 6.87822 12.1313V8.26758H1.89568C-0.231827 12.506 -0.231827 17.4996 1.89568 21.7381L6.87822 17.8744Z" fill="#CAFF33"/>
<path d="M15.3 5.93708C17.4385 5.90401 19.5054 6.70871 21.0542 8.18583L25.3367 3.90327C22.625 1.35688 19.0259 -0.0430825 15.3 0.00101083C9.6285 0.00101083 4.44202 3.19778 1.89563 8.26851L6.87818 12.1322C8.06318 8.57716 11.3867 5.93708 15.3 5.93708Z" fill="#CAFF33"/>
</g>
<defs>
<clipPath id="clip0_195_2055">
<rect width="30" height="30" fill="white"/>
</clipPath>
</defs>
</svg>
