<svg width="64" height="64" viewBox="0 0 64 64" fill="none" xmlns="http://www.w3.org/2000/svg">
<path d="M-0.000488281 22C-0.000488281 30.8744 5.25402 38.5216 12.8216 42H-0.000488281C-0.000488281 54.1503 9.84925 64 21.9995 64C30.8739 64 38.5211 58.7455 41.9995 51.1779V64C54.1498 64 63.9995 54.1503 63.9995 42C63.9995 33.1256 58.745 25.4784 51.1775 22H63.9995C63.9995 9.84974 54.1498 0 41.9995 0C33.1251 0 25.478 5.2545 21.9995 12.8221V0C9.84925 0 -0.000488281 9.84974 -0.000488281 22Z" fill="#CAFF33"/>
<path d="M41.9995 32C41.9995 37.5228 37.5224 42 31.9995 42C26.4767 42 21.9995 37.5228 21.9995 32C21.9995 26.4772 26.4767 22 31.9995 22C37.5224 22 41.9995 26.4772 41.9995 32Z" fill="white"/>
</svg>
