<svg width="60" height="60" viewBox="0 0 60 60" fill="none" xmlns="http://www.w3.org/2000/svg">
<path fill-rule="evenodd" clip-rule="evenodd" d="M6.17157 6.17173C5 7.34331 5 9.22893 5 13.0002V47.0002C5 50.7714 5 52.657 6.17157 53.8286C7.34315 55.0002 9.22876 55.0002 13 55.0002H47C50.7712 55.0002 52.6569 55.0002 53.8284 53.8286C55 52.657 55 50.7714 55 47.0002V13.0002C55 9.22892 55 7.34331 53.8284 6.17173C53.8026 6.14594 53.7765 6.12072 53.75 6.09605V42.5002H53.3137C51.6787 42.5002 50.8612 42.5002 50.1261 42.1957C49.391 41.8912 48.813 41.3131 47.6569 40.157L42.8284 35.3286C41.4951 33.9953 40.8284 33.3286 40 33.3286C39.1716 33.3286 38.5049 33.9953 37.1716 35.3286L32.0888 40.4113C31.1424 41.3577 30.6692 41.8309 30.1482 41.7306C29.6272 41.6302 29.3636 41.0151 28.8363 39.7849L24.8273 30.4306C23.7729 27.9702 23.2456 26.74 22.2036 26.5393C21.1615 26.3386 20.2151 27.285 18.3223 29.1778L8.75 38.7502V5.12891C7.58622 5.26895 6.78198 5.56133 6.17157 6.17173Z" fill="#CAFF33"/>
<path d="M6 13C6 11.0861 6.00212 9.75129 6.13753 8.74416C6.26907 7.76579 6.50966 7.2477 6.87868 6.87868C7.2477 6.50966 7.76579 6.26907 8.74416 6.13753C9.75129 6.00212 11.0861 6 13 6H47C48.9139 6 50.2487 6.00212 51.2558 6.13753C52.2342 6.26907 52.7523 6.50966 53.1213 6.87868C53.4903 7.2477 53.7309 7.76579 53.8625 8.74416C53.9979 9.75129 54 11.0861 54 13V47C54 48.9139 53.9979 50.2487 53.8625 51.2558C53.7309 52.2342 53.4903 52.7523 53.1213 53.1213C52.7523 53.4903 52.2342 53.7309 51.2558 53.8625C50.2487 53.9979 48.9139 54 47 54H13C11.0861 54 9.75129 53.9979 8.74416 53.8625C7.76579 53.7309 7.2477 53.4903 6.87868 53.1213C6.50966 52.7523 6.26907 52.2342 6.13753 51.2558C6.00212 50.2487 6 48.9139 6 47V13Z" stroke="#CAFF33" stroke-width="2"/>
<circle cx="37.5" cy="22.5" r="5" fill="#CAFF33"/>
</svg>
