<svg width="52" height="53" viewBox="0 0 52 53" fill="none" xmlns="http://www.w3.org/2000/svg">
<rect y="0.866211" width="52" height="52" rx="26" fill="#CAFF33"/>
<g clip-path="url(#clip0_155_1000)">
<path d="M36.2234 14.8662H15.7719C14.7922 14.8662 14 15.6396 14 16.5959V37.1318C14 38.0881 14.7922 38.8662 15.7719 38.8662H36.2234C37.2031 38.8662 38 38.0881 38 37.1365V16.5959C38 15.6396 37.2031 14.8662 36.2234 14.8662ZM21.1203 35.3178H17.5578V23.8615H21.1203V35.3178ZM19.3391 22.3006C18.1953 22.3006 17.2719 21.3771 17.2719 20.2381C17.2719 19.099 18.1953 18.1756 19.3391 18.1756C20.4781 18.1756 21.4016 19.099 21.4016 20.2381C21.4016 21.3725 20.4781 22.3006 19.3391 22.3006ZM34.4516 35.3178H30.8937V29.749C30.8937 28.4225 30.8703 26.7115 29.0422 26.7115C27.1906 26.7115 26.9094 28.16 26.9094 29.6553V35.3178H23.3563V23.8615H26.7687V25.4271H26.8156C27.2891 24.5271 28.4516 23.5756 30.1813 23.5756C33.7859 23.5756 34.4516 25.9475 34.4516 29.0318V35.3178Z" fill="#262626"/>
</g>
<defs>
<clipPath id="clip0_155_1000">
<rect width="24" height="24" fill="white" transform="translate(14 14.8662)"/>
</clipPath>
</defs>
</svg>
