<svg width="20" height="16" viewBox="0 0 20 16" fill="none" xmlns="http://www.w3.org/2000/svg">
<path d="M3.71686 8.18717C3.49168 8.08441 3.22674 8.23385 3.22674 8.46363V12.2909C3.22674 12.2909 3.22674 16 10 16C16.7733 16 16.7733 12.2909 16.7733 12.2909V8.46363C16.7733 8.23385 16.5083 8.08441 16.2831 8.18717L10.6058 10.778C10.2244 10.952 9.77555 10.952 9.39418 10.778L3.71686 8.18717Z" fill="white"/>
<path d="M0.374417 4.31963L9.69709 0.0652642C9.88778 -0.0217547 10.1122 -0.0217548 10.3029 0.0652641L19.6256 4.31963C20.1248 4.54745 20.1248 5.19767 19.6256 5.42549L10.3029 9.67986C10.1122 9.76688 9.88778 9.76688 9.69709 9.67986L0.374417 5.42549C-0.124805 5.19767 -0.124806 4.54745 0.374417 4.31963Z" fill="white"/>
</svg>
