<svg width="24" height="21" viewBox="0 0 24 21" fill="none" xmlns="http://www.w3.org/2000/svg">
<path d="M4.46023 10.7457C4.19001 10.6108 3.87208 10.8069 3.87208 11.1085V16.1317C3.87208 16.1317 3.87208 21 12 21C20.1279 21 20.1279 16.1317 20.1279 16.1317V11.1085C20.1279 10.8069 19.81 10.6108 19.5398 10.7457L12.727 14.1461C12.2693 14.3745 11.7307 14.3745 11.273 14.1461L4.46023 10.7457Z" fill="#CAFF33"/>
<path d="M0.4493 5.66952L11.6365 0.0856593C11.8653 -0.028553 12.1347 -0.0285532 12.3635 0.0856591L23.5507 5.66952C24.1498 5.96853 24.1498 6.82194 23.5507 7.12095L12.3635 12.7048C12.1347 12.819 11.8653 12.819 11.6365 12.7048L0.4493 7.12095C-0.149766 6.82194 -0.149767 5.96853 0.4493 5.66952Z" fill="#CAFF33"/>
</svg>
