<svg width="24" height="25" viewBox="0 0 24 25" fill="none" xmlns="http://www.w3.org/2000/svg">
<path fill-rule="evenodd" clip-rule="evenodd" d="M11.5397 22.7173C11.57 22.7348 11.5937 22.7483 11.6105 22.7577L11.6384 22.7733C11.8613 22.8957 12.1378 22.8947 12.3608 22.7737L12.3895 22.7577C12.4063 22.7483 12.43 22.7348 12.4603 22.7173C12.5207 22.6823 12.607 22.6312 12.7155 22.5644C12.9325 22.4308 13.2388 22.2338 13.6046 21.9753C14.3351 21.4593 15.3097 20.6937 16.2865 19.6936C18.2307 17.703 20.25 14.7124 20.25 10.8662C20.25 6.30986 16.5563 2.61621 12 2.61621C7.44365 2.61621 3.75 6.30986 3.75 10.8662C3.75 14.7124 5.76932 17.703 7.71346 19.6936C8.69025 20.6937 9.66491 21.4593 10.3954 21.9753C10.7612 22.2338 11.0675 22.4308 11.2845 22.5644C11.393 22.6312 11.4793 22.6823 11.5397 22.7173ZM12 13.8662C13.6569 13.8662 15 12.5231 15 10.8662C15 9.20936 13.6569 7.86621 12 7.86621C10.3431 7.86621 9 9.20936 9 10.8662C9 12.5231 10.3431 13.8662 12 13.8662Z" fill="#CAFF33"/>
</svg>
