<svg width="110" height="61" viewBox="0 0 110 61" fill="none" xmlns="http://www.w3.org/2000/svg">
<g clip-path="url(#clip0_137_48)">
<path d="M56.8642 60.8956C56.3592 60.9291 55.8832 60.8799 55.4407 60.7481C54.9982 60.6162 54.6093 60.4106 54.2741 60.1335C53.9411 59.8564 53.6707 59.5212 53.4674 59.1256C53.264 58.7323 53.1456 58.292 53.112 57.8048C53.0785 57.3177 53.1388 56.864 53.2886 56.4483C53.4383 56.0304 53.6618 55.6639 53.959 55.3421C54.2562 55.0203 54.616 54.7678 55.0429 54.5756C55.4675 54.3856 55.939 54.2716 56.4575 54.2381C57.0609 54.1979 57.6062 54.2627 58.0956 54.4325C58.585 54.6024 58.9962 54.8661 59.3337 55.2214L58.2521 56.3411C58.0174 56.1176 57.7693 55.9544 57.5079 55.8539C57.2464 55.7511 56.9603 55.7108 56.6497 55.731C56.3748 55.7488 56.129 55.8092 55.9078 55.9097C55.6887 56.0103 55.5033 56.1466 55.3558 56.3187C55.2083 56.4908 55.0965 56.6919 55.025 56.9199C54.9513 57.1478 54.9245 57.4026 54.9423 57.6842C54.9602 57.9523 55.0205 58.1959 55.1233 58.4149C55.2261 58.634 55.3625 58.8194 55.5323 58.9714C55.7022 59.1211 55.8988 59.2351 56.129 59.3089C56.357 59.3826 56.605 59.4094 56.8732 59.3916C57.1414 59.3737 57.4006 59.3111 57.6509 59.2061C57.9012 59.101 58.1493 58.9334 58.3973 58.701L59.4968 59.9033C59.1482 60.1894 58.7392 60.4196 58.2655 60.5916C57.7939 60.7637 57.3246 60.8665 56.862 60.8956H56.8642ZM57.8811 59.7715L57.7202 57.3579L59.3203 57.2506L59.4968 59.9011L57.8811 59.7692V59.7715Z" fill="white"/>
<path d="M62.8846 60.0475L61.499 53.7856L63.2712 53.3945L64.3461 58.253L67.3341 57.5915L67.6447 58.9972L62.8846 60.0498V60.0475Z" fill="white"/>
<path d="M73.451 57.1361C72.9728 57.3238 72.5012 57.4177 72.0386 57.4222C71.5738 57.4266 71.138 57.3462 70.729 57.1808C70.3201 57.0154 69.9603 56.7785 69.6474 56.4679C69.3368 56.1573 69.0909 55.7774 68.9166 55.3282C68.7401 54.879 68.6619 54.4342 68.6797 53.994C68.6976 53.5537 68.8004 53.1358 68.9904 52.7358C69.1781 52.338 69.444 51.9827 69.7882 51.6698C70.1324 51.3592 70.5436 51.1089 71.0218 50.9211C71.5045 50.7312 71.9783 50.6351 72.4387 50.6329C72.899 50.6306 73.3326 50.7111 73.7393 50.8764C74.146 51.0418 74.5058 51.2809 74.8209 51.5893C75.1361 51.9 75.3819 52.2777 75.5562 52.7269C75.7305 53.1761 75.8087 53.623 75.7909 54.0677C75.7707 54.5125 75.6679 54.9304 75.4802 55.3259C75.2925 55.7215 75.0288 56.0723 74.6891 56.383C74.3494 56.6936 73.936 56.9439 73.4533 57.1316L73.451 57.1361ZM72.9035 55.7371C73.1314 55.6477 73.3281 55.5248 73.4935 55.3684C73.6589 55.2119 73.784 55.0309 73.8712 54.8231C73.9561 54.6153 74.0008 54.3895 74.0008 54.1482C74.0008 53.9046 73.9516 53.6565 73.851 53.3995C73.7482 53.1381 73.6164 52.9191 73.451 52.7447C73.2879 52.5682 73.1046 52.4341 72.899 52.3402C72.6957 52.2464 72.4789 52.1972 72.2509 52.195C72.023 52.1927 71.795 52.2352 71.5693 52.3246C71.3436 52.414 71.1447 52.5369 70.9816 52.6933C70.8162 52.8498 70.6911 53.0308 70.6039 53.2386C70.519 53.4465 70.4743 53.6699 70.472 53.9091C70.472 54.1482 70.5212 54.4007 70.624 54.6622C70.7246 54.917 70.8564 55.136 71.0218 55.3125C71.1872 55.4913 71.3704 55.6276 71.5738 55.7215C71.7772 55.8153 71.9939 55.8645 72.2219 55.8667C72.4498 55.869 72.6778 55.8265 72.9035 55.7371Z" fill="white"/>
<path d="M79.6123 54.2344L76.3115 48.7346L79.1229 47.0473C79.8447 46.6138 80.4638 46.4216 80.98 46.473C81.494 46.5244 81.8806 46.7635 82.1399 47.1926C82.3097 47.4764 82.3835 47.7669 82.3611 48.0686C82.3388 48.3703 82.2293 48.6631 82.0348 48.9491C81.8382 49.2352 81.5543 49.4877 81.1834 49.7112L81.1141 49.2397C81.5007 49.0072 81.8739 48.8642 82.2337 48.8083C82.5935 48.7525 82.9176 48.7882 83.2126 48.9156C83.5053 49.043 83.7489 49.2665 83.9411 49.5838C84.2272 50.0598 84.2585 50.547 84.0305 51.0409C83.8048 51.537 83.3221 52.0063 82.5846 52.4488L79.6145 54.2322L79.6123 54.2344ZM80.4772 52.1873L81.7801 51.4052C82.0482 51.2443 82.2225 51.0767 82.3075 50.9023C82.3924 50.728 82.3768 50.5448 82.2628 50.3571C82.1488 50.1693 81.9968 50.071 81.8024 50.0621C81.608 50.0531 81.3778 50.1291 81.1119 50.29L79.6972 51.1392L79.0514 50.0621L80.2291 49.3536C80.4906 49.1972 80.6604 49.0341 80.7386 48.8664C80.8169 48.6988 80.8012 48.5268 80.694 48.348C80.5867 48.1692 80.4414 48.0776 80.2582 48.0686C80.0749 48.0597 79.8537 48.1357 79.5922 48.2921L78.524 48.9335L80.4772 52.1851V52.1873Z" fill="white"/>
<path d="M86.8731 49.6882L84.8662 42.9704L86.225 41.8105L92.5472 44.8499L91.1102 46.0745L85.8383 43.3079L86.3814 42.843L88.2787 48.4859L86.8708 49.686L86.8731 49.6882ZM87.244 47.735L86.7323 46.4142L89.1168 44.3806L90.3392 45.0957L87.244 47.735Z" fill="white"/>
<path d="M94.4111 42.8322L89.5571 38.6397L90.7438 37.2676L94.5094 40.5192L96.5096 38.204L97.5979 39.1448L94.4111 42.8322Z" fill="white"/>
<path d="M102.704 31.2915L101.871 32.9028L96.1763 29.9506L97.0121 28.3393L102.706 31.2915H102.704ZM98.1474 26.1425L98.9832 24.5312L104.677 27.4834L103.842 29.0947L98.1474 26.1425ZM101.681 27.8298L100.425 30.2546L99.0904 29.5618L100.346 27.137L101.681 27.8276V27.8298Z" fill="white"/>
<path d="M107.071 21.4034C106.781 22.3062 106.309 22.9297 105.652 23.2761C104.995 23.6225 104.213 23.6516 103.306 23.3588L99.9199 22.2705L100.474 20.543L103.806 21.6135C104.329 21.7811 104.738 21.7989 105.031 21.6649C105.324 21.5308 105.529 21.2849 105.645 20.9229C105.762 20.5609 105.739 20.2435 105.576 19.9664C105.415 19.6893 105.073 19.4681 104.548 19.3004L101.216 18.23L101.764 16.5293L105.149 17.6176C106.057 17.9082 106.676 18.3864 107.006 19.0524C107.337 19.7161 107.36 20.5005 107.069 21.4011L107.071 21.4034Z" fill="white"/>
<path d="M108.658 15.0738L102.313 14.1352L102.794 10.8903C102.917 10.0567 103.163 9.45775 103.527 9.09124C103.893 8.72697 104.323 8.57948 104.819 8.65322C105.145 8.70239 105.418 8.82977 105.637 9.03761C105.856 9.24544 106.014 9.51585 106.11 9.84884C106.206 10.1818 106.222 10.5617 106.16 10.9908L105.751 10.745C105.818 10.298 105.943 9.91812 106.128 9.60525C106.314 9.29237 106.548 9.06443 106.832 8.91693C107.116 8.77167 107.442 8.72474 107.811 8.77837C108.361 8.85882 108.756 9.14488 108.996 9.6343C109.235 10.1237 109.293 10.7942 109.165 11.6456L108.658 15.0716V15.0738ZM107.626 13.1049L107.849 11.6009C107.896 11.2925 107.876 11.0512 107.795 10.8746C107.713 10.6981 107.563 10.5953 107.346 10.5617C107.129 10.5304 106.955 10.5863 106.826 10.7293C106.696 10.8746 106.609 11.1003 106.564 11.4087L106.323 13.0401L105.08 12.8569L105.281 11.4981C105.326 11.1964 105.308 10.9618 105.228 10.7964C105.147 10.631 105.004 10.5327 104.799 10.5014C104.593 10.4701 104.43 10.5237 104.307 10.6601C104.184 10.7964 104.101 11.0154 104.057 11.3171L103.873 12.5507L107.626 13.1049Z" fill="white"/>
<path d="M84.958 36.9669V37.1792C86.5045 35.6931 87.9415 34.1041 89.26 32.4236V32.1777C87.9437 33.8717 86.5045 35.4696 84.958 36.9669Z" fill="white"/>
<path d="M52.7367 50.4234L58.9784 45.9002C56.6364 51.2726 43.1449 58.3838 36.9165 58.5134C39.967 56.2965 42.318 53.0471 43.4176 49.1384C42.4208 48.9328 41.4241 48.6937 40.4296 48.4188C31.2268 45.8801 23.443 40.7378 17.6549 34.0044C17.1878 33.4613 16.5911 33.0457 15.9251 32.7864C14.7452 32.3261 13.4803 32.1272 12.2176 32.2009L11.8399 32.2233C10.9304 32.2769 10.0342 32.4825 9.18499 32.8155C4.43159 34.6748 1.11068 33.9284 0.0759746 33.296C-0.0379999 33.2267 -0.0268259 33.0568 0.093853 32.9965L1.5867 32.2501C2.87617 31.6042 3.98239 30.6455 4.80256 29.4588L5.40819 28.5828C6.06299 27.6352 7.05747 26.9782 8.18381 26.748L11.9405 25.9815C11.9606 25.977 11.974 25.9591 11.974 25.939L11.9025 23.4092C11.8891 22.9466 11.9137 22.4863 11.9718 22.0214C12.1662 20.4347 12.9015 18.962 14.0121 17.8111L14.3563 17.4557C14.7295 17.0691 15.0133 16.6088 15.1921 16.1037L15.7821 14.4343L16.1955 14.9237C16.7632 15.5964 17.2325 16.3294 17.637 17.1541C18.5801 19.0849 18.7857 21.2951 18.2985 23.3891L18.0348 24.5222C17.6303 26.2586 18.3655 28.0755 19.8852 29.0029C24.1335 31.5953 29.5149 31.7182 34.065 31.3897C34.9835 31.3226 35.893 31.2176 36.7959 31.0768C44.8657 29.8075 52.0617 25.2842 56.8755 18.6849L58.3393 16.678C61.9619 11.7123 66.6706 7.62265 72.1369 4.81128C72.4699 4.6392 72.7984 4.47607 73.1202 4.32186C77.8177 2.06919 83.436 0.875813 88.8867 0.415445L94.1116 -0.000226607C94.648 -0.0426877 94.8111 0.710438 94.3038 0.893691L91.8634 1.77196C82.8326 4.53194 80.2894 7.41705 76.3562 11.2162C71.4285 15.9763 68.8272 21.5521 67.1913 25.3222C66.6929 26.4709 59.0522 45.7371 59.0522 45.7371C57.9191 48.3071 55.5123 50.0882 52.721 50.4167" fill="white"/>
<path d="M67.2899 38.6953H63.8908C63.645 38.6953 63.4438 38.8964 63.4438 39.1423V48.8212C64.8898 48.4748 66.3223 48.0591 67.7369 47.5697V39.1423C67.7369 38.8964 67.5358 38.6953 67.2899 38.6953Z" fill="white"/>
<path d="M72.6732 28.5508H69.2741C69.0283 28.5508 68.8271 28.7519 68.8271 28.9977V47.1823C70.2798 46.6392 71.7123 46.0202 73.1202 45.3274V28.9977C73.1202 28.7519 72.9191 28.5508 72.6732 28.5508Z" fill="white"/>
<path d="M78.057 18.5371H74.6579C74.4121 18.5371 74.2109 18.7382 74.2109 18.9841V44.7758C74.6713 44.5345 75.1294 44.2842 75.5853 44.0272C76.5843 43.4595 77.5587 42.8584 78.504 42.2282V18.9863C78.504 18.7405 78.3028 18.5393 78.057 18.5393V18.5371Z" fill="white"/>
<path d="M83.4403 11.6172H80.0412C79.7954 11.6172 79.5942 11.8183 79.5942 12.0641V41.4763C81.1005 40.408 82.533 39.2571 83.8873 38.0324V12.0641C83.8873 11.8183 83.6861 11.6172 83.4403 11.6172Z" fill="white"/>
<path d="M45.9855 18.3268C45.9207 21.2745 44.9619 23.9652 42.8478 26.1888C41.3527 27.7598 39.5113 28.7208 37.3972 29.17C31.0526 30.5198 25.7919 26.4502 24.3214 21.3393C23.1883 17.406 24.4532 12.9499 27.5194 10.1854C29.7139 8.20539 32.2996 7.21314 35.2451 7.29359C38.5235 7.38298 41.2924 8.66352 43.4579 11.1486C44.7519 12.6347 45.4983 14.3891 45.8223 16.3266C45.9274 16.9568 45.9698 17.5915 45.9877 18.3223L45.9855 18.3268Z" fill="white"/>
<path d="M32.5723 27.5429C32.2974 27.572 32.0538 27.5809 31.8147 27.5161C31.6069 27.458 31.4594 27.3239 31.3901 27.1183C31.1666 26.4702 30.9566 25.8176 30.6348 25.2075C30.5789 25.1003 30.5834 24.9818 30.5968 24.8679C30.6348 24.5304 30.5454 24.2242 30.3956 23.9292C30.2437 23.6343 30.085 23.3415 29.942 23.042C29.8123 22.7694 29.7453 22.4833 29.8012 22.1794C29.8325 22.014 29.7609 21.947 29.6 21.9649C29.0816 22.023 28.7151 21.7816 28.4178 21.3838C28.2279 21.129 28.029 20.881 27.8994 20.586C27.8323 20.434 27.8189 20.2865 27.877 20.1256C27.9485 19.929 28.0022 19.7256 28.0647 19.5267C28.1452 19.2764 28.2614 19.0462 28.4759 18.8764C28.5653 18.8049 28.6056 18.7065 28.61 18.5926C28.6145 18.4339 28.5475 18.3311 28.3776 18.3624C28.0111 18.4317 27.7072 18.3512 27.468 18.0495C27.3943 17.9579 27.2803 17.9512 27.1686 17.9668C26.8222 18.0137 26.5272 17.9065 26.2747 17.6696C25.9707 17.3835 25.6243 17.207 25.1953 17.1735C24.8377 17.1466 24.7081 16.9455 24.7729 16.5879C25.3316 13.5576 26.9228 11.2222 29.5039 9.54611C29.638 9.45895 29.7185 9.48354 29.8168 9.59081C30.2392 10.0623 30.2347 9.95731 30.7085 9.71595C30.923 9.60645 31.1242 9.4813 31.2806 9.29358C31.3074 9.26006 31.3409 9.22877 31.3789 9.21089C31.6337 9.0768 32.2773 9.19525 32.4718 9.41649C32.7109 9.68467 32.8204 10.0221 32.9947 10.3752C32.3332 10.3015 31.7633 10.5138 31.1957 10.7216C31.0348 10.782 30.9141 10.7417 30.8202 10.6032C30.7063 10.4333 30.5409 10.3819 30.3643 10.4579C30.1297 10.5585 29.8839 10.6099 29.6447 10.6926C29.4749 10.7507 29.3676 10.8401 29.4078 11.0412C29.419 11.1038 29.4011 11.1708 29.3989 11.2356C29.3833 11.5306 29.4257 11.582 29.7162 11.5753C29.8772 11.5708 29.9397 11.6893 30.0269 11.7809C30.1878 11.953 30.228 11.9463 30.3062 11.7228C30.456 11.2937 30.6772 11.1485 31.1867 11.1529C31.4974 11.1552 31.808 11.1976 32.1187 11.1485C32.3444 11.1127 32.5522 11.0412 32.7422 10.916C32.9545 10.7775 33.0841 10.7931 33.2472 10.9876C33.4305 11.2043 33.5534 11.4591 33.6696 11.7161C33.7568 11.9083 33.8707 12.0491 34.168 12.0111C33.9043 12.2726 33.683 12.496 33.4573 12.715C33.3903 12.7799 33.3098 12.7463 33.2316 12.7195C32.9522 12.6234 32.6684 12.5363 32.3891 12.4379C32.2393 12.3843 32.1857 12.4312 32.1991 12.581C32.1991 12.5877 32.1991 12.5944 32.1991 12.6033C32.2237 13.2067 32.2192 13.2447 31.6359 13.1687C30.8605 13.0704 30.3621 13.6894 30.1275 14.3174C30.0425 14.5453 30.0023 14.7912 29.9487 15.0303C29.828 15.5577 29.5218 15.9533 29.1062 16.2818C28.9944 16.3689 28.9162 16.3332 28.8156 16.2728C28.353 16.0002 27.8547 15.8862 27.3183 15.9577C27.1954 15.9756 27.077 16.0114 26.9675 16.065C26.6501 16.2214 26.6144 16.3287 26.7574 16.6483C26.7931 16.7265 26.8222 16.8092 26.8602 16.8874C26.9742 17.1221 27.077 17.1422 27.2356 16.9366C27.3585 16.7779 27.4949 16.7176 27.6848 16.7645C27.7742 16.7846 27.8368 16.8204 27.8144 16.9254C27.7742 17.1064 27.8614 17.2338 27.9888 17.3411C28.1385 17.4685 28.248 17.6092 28.2078 17.826C28.1877 17.9311 28.2636 17.9623 28.3553 17.9623C28.686 17.9623 28.9966 17.9847 29.2782 17.7098C29.4838 17.5109 29.8123 17.5221 30.1073 17.5534C30.2101 17.5646 30.2481 17.6472 30.2884 17.7232C30.3666 17.8707 30.4403 18.0182 30.5141 18.1679C30.5655 18.273 30.6303 18.3177 30.7264 18.2149C31.0303 17.8953 31.3968 17.8841 31.7879 17.9936C32.0337 18.0629 32.2594 18.1746 32.4807 18.2953C32.655 18.3892 32.722 18.5568 32.7869 18.7266C32.8874 18.9903 33.0014 19.2272 33.3545 19.1647C33.4059 19.1557 33.4528 19.1915 33.4841 19.2317C33.683 19.4954 33.9713 19.634 34.2529 19.7837C34.5009 19.9156 34.682 20.101 34.8228 20.3558C35.0328 20.729 34.901 21.0687 34.7982 21.4218C34.6775 21.8375 34.4294 22.1392 34.0026 22.2643C33.8305 22.3157 33.7836 22.4297 33.7903 22.5928C33.8126 23.1582 33.7545 23.2476 33.2293 23.4354C33.064 23.4957 32.9768 23.5985 32.9858 23.7728C32.9902 23.8801 33.0059 23.9896 33.0193 24.0969C33.0751 24.5729 32.8785 24.9126 32.4315 25.0556C32.2505 25.1137 32.1522 25.212 32.1164 25.3953C32.103 25.4645 32.0717 25.5316 32.0382 25.5964C31.7633 26.1216 31.8326 26.6155 32.1812 27.0781C32.293 27.2278 32.4203 27.3664 32.5678 27.5429H32.5723Z" fill="black"/>
<path d="M42.9885 24.9611C43.06 24.2192 42.6176 23.7007 42.3583 23.1174C42.3337 23.0638 42.3092 23.0124 42.2779 22.9632C42.1728 22.8045 42.2198 22.6839 42.3516 22.5677C42.5036 22.4336 42.6444 22.2883 42.7852 22.143C42.9282 21.9955 42.955 21.8369 42.8254 21.6559C42.6086 21.3542 42.546 21.0055 42.5773 20.6457C42.5952 20.4424 42.5237 20.3194 42.3471 20.2301C41.7303 19.915 41.1314 19.8479 40.49 20.2032C39.6006 20.6971 38.5636 20.1898 38.3022 19.1685C38.177 18.6791 38.1927 18.1785 38.1904 17.6802C38.1904 17.5461 38.2664 17.4455 38.3625 17.3673C38.5502 17.2198 38.6173 17.0343 38.5972 16.7974C38.5793 16.5963 38.5793 16.3929 38.5927 16.1896C38.6195 15.7806 38.8653 15.5616 39.2676 15.5772C39.6162 15.5906 39.9447 15.5213 40.242 15.3381C40.4409 15.2152 40.6509 15.166 40.8811 15.1683C41.1135 15.1683 41.3437 15.1683 41.5761 15.166C41.7281 15.166 41.8644 15.2107 41.9605 15.3314C42.2019 15.6353 42.5684 15.7359 42.888 15.9147C42.9729 15.9616 43.0377 15.9102 43.0913 15.8432C43.3506 15.5191 43.7394 15.394 44.0881 15.2085C44.1797 15.1593 44.2601 15.204 44.3361 15.2398C44.5305 15.3336 44.7071 15.4677 44.9216 15.5169C45.0133 15.537 45.0021 15.6152 45.0155 15.6688C45.3351 16.8689 45.4423 18.0891 45.3239 19.325C45.1317 21.3318 44.4166 23.1353 43.1807 24.7287C43.1271 24.7957 43.0712 24.8628 42.9908 24.9634L42.9885 24.9611Z" fill="black"/>
<path d="M44.1281 13.5295C43.9292 13.3306 43.7236 13.1362 43.5336 12.9284C43.4084 12.7943 43.3146 12.8323 43.2096 12.944C43.1045 13.0557 42.9749 13.1586 43.1447 13.3195C43.3124 13.4781 43.4733 13.6457 43.6409 13.8066C43.7459 13.9072 43.7481 13.9899 43.614 14.0592C43.4397 14.1486 43.2654 14.2335 43.0911 14.3184C43.0017 14.3609 42.919 14.3363 42.8542 14.267C42.7023 14.1016 42.5592 13.9385 42.5659 13.6837C42.5726 13.3686 42.3402 13.1451 42.2195 12.8792C42.1793 12.792 42.1234 12.8412 42.0877 12.8859C41.8597 13.1653 41.5402 13.306 41.2273 13.4535C41.0798 13.5228 40.9569 13.6256 40.8496 13.7396C40.5591 14.0569 40.1859 13.9608 39.8305 13.9608C39.8127 13.9608 39.7926 13.9452 39.7769 13.9318C39.5043 13.7105 39.3836 13.1139 39.549 12.7943C39.7903 12.325 39.8574 12.2937 40.3781 12.3943C40.6619 12.4501 40.6842 12.4613 40.9412 12.7339C41.0083 12.5708 40.9859 12.4054 40.9882 12.2423C40.9904 11.7864 41.1714 11.5987 41.6273 11.5786C41.6854 11.5763 41.7435 11.5718 41.8016 11.5763C42.1078 11.5987 42.3559 11.5003 42.5279 11.2188C43.176 11.9272 43.7526 12.6691 44.1616 13.5318C44.1504 13.5496 44.1392 13.5474 44.1303 13.5318L44.1281 13.5295Z" fill="black"/>
<path d="M42.2621 10.9607C41.7928 10.8669 41.4129 10.5138 41.395 10.1875C41.6878 10.4199 41.9671 10.6523 42.2621 10.9607Z" fill="black"/>
<path d="M44.1284 13.5296C44.1284 13.5296 44.1485 13.5296 44.1597 13.5296C44.2714 13.6525 44.3161 13.8089 44.3854 13.9609C44.2469 13.9989 44.1843 13.943 44.1686 13.8223C44.1552 13.724 44.1418 13.6257 44.1284 13.5273V13.5296Z" fill="black"/>
<path d="M89.26 32.1777V7.73797C89.26 7.49215 89.0589 7.29102 88.813 7.29102H85.405C85.1591 7.29102 84.958 7.49215 84.958 7.73797V36.9668C86.5045 35.4695 87.9437 33.8717 89.26 32.1777Z" fill="white"/>
<path d="M92.3281 3.625H92.2253C91.1727 3.625 90.3213 4.47869 90.3213 5.52904V30.7532C91.0208 29.7788 91.68 28.7754 92.3036 27.7451C93.8366 25.2086 94.6233 22.29 94.6233 19.3267V7.2923V7.82641V4.07196C94.6233 3.82613 94.4221 3.625 94.1763 3.625H92.3304H92.3281Z" fill="white"/>
</g>
<defs>
<clipPath id="clip0_137_48">
<rect width="109.23" height="60.9071" fill="white"/>
</clipPath>
</defs>
</svg>
