<svg width="24" height="25" viewBox="0 0 24 25" fill="none" xmlns="http://www.w3.org/2000/svg">
<path fill-rule="evenodd" clip-rule="evenodd" d="M1.5 4.86621C1.5 3.20936 2.84315 1.86621 4.5 1.86621H5.87163C6.732 1.86621 7.48197 2.45177 7.69064 3.28646L8.79644 7.70964C8.97941 8.44151 8.70594 9.21176 8.10242 9.66439L6.8088 10.6346C6.67447 10.7354 6.64527 10.8829 6.683 10.9859C7.81851 14.0857 10.2805 16.5477 13.3803 17.6832C13.4833 17.7209 13.6309 17.6917 13.7316 17.5574L14.7018 16.2638C15.1545 15.6603 15.9247 15.3868 16.6566 15.5698L21.0798 16.6756C21.9144 16.8842 22.5 17.6342 22.5 18.4946V19.8662C22.5 21.5231 21.1569 22.8662 19.5 22.8662H17.25C8.55151 22.8662 1.5 15.8147 1.5 7.11621V4.86621Z" fill="#CAFF33"/>
</svg>
