<svg width="25" height="25" viewBox="0 0 25 25" fill="none" xmlns="http://www.w3.org/2000/svg">
<path d="M4.16699 7.70523C4.16699 7.50085 4.16699 7.39867 4.20505 7.30678C4.24311 7.2149 4.31537 7.14264 4.45989 6.99812L6.12042 5.33759C6.69848 4.75953 6.98751 4.4705 7.35505 4.31826C7.72259 4.16602 8.13135 4.16602 8.94885 4.16602H16.0518C16.8693 4.16602 17.2781 4.16602 17.6456 4.31826C18.0131 4.4705 18.3022 4.75953 18.8802 5.33759L20.5408 6.99812C20.6853 7.14264 20.7575 7.2149 20.7956 7.30678C20.8337 7.39867 20.8337 7.50085 20.8337 7.70523V8.33268H4.16699V7.70523Z" stroke="#CAFF33" stroke-width="2"/>
<path fill-rule="evenodd" clip-rule="evenodd" d="M21.875 8.33398H3.125V17.8757C3.125 19.7613 3.125 20.7041 3.71079 21.2899C4.29657 21.8757 5.23938 21.8757 7.125 21.8757H17.875C19.7606 21.8757 20.7034 21.8757 21.2892 21.2899C21.875 20.7041 21.875 19.7613 21.875 17.8756V8.33398ZM10.375 11.459C10.375 10.9067 9.92728 10.459 9.375 10.459C8.82272 10.459 8.375 10.9067 8.375 11.459C8.375 12.553 8.8096 13.6022 9.58318 14.3758C10.3568 15.1494 11.406 15.584 12.5 15.584C13.594 15.584 14.6432 15.1494 15.4168 14.3758C16.1904 13.6022 16.625 12.553 16.625 11.459C16.625 10.9067 16.1773 10.459 15.625 10.459C15.0727 10.459 14.625 10.9067 14.625 11.459C14.625 12.0226 14.4011 12.5631 14.0026 12.9616C13.6041 13.3601 13.0636 13.584 12.5 13.584C11.9364 13.584 11.3959 13.3601 10.9974 12.9616C10.5989 12.5631 10.375 12.0226 10.375 11.459Z" fill="#CAFF33"/>
</svg>
