<svg width="30" height="28" viewBox="0 0 30 28" fill="none" xmlns="http://www.w3.org/2000/svg">
<path fill-rule="evenodd" clip-rule="evenodd" d="M1.1875 0.1875C0.600697 0.1875 0.125 0.663197 0.125 1.25C0.125 1.8368 0.600697 2.3125 1.1875 2.3125H2.25V17.1875C2.25 19.5347 4.15279 21.4375 6.5 21.4375H8.21336L6.55452 26.414C6.36896 26.9707 6.66982 27.5724 7.22651 27.758C7.7832 27.9435 8.38491 27.6427 8.57048 27.086L9.03664 25.6875H20.9634L21.4295 27.086C21.6151 27.6427 22.2168 27.9435 22.7735 27.758C23.3302 27.5724 23.631 26.9707 23.4455 26.414L21.7866 21.4375H23.5C25.8472 21.4375 27.75 19.5347 27.75 17.1875V2.3125H28.8125C29.3993 2.3125 29.875 1.8368 29.875 1.25C29.875 0.663197 29.3993 0.1875 28.8125 0.1875H1.1875ZM9.74497 23.5625L10.4533 21.4375H19.5467L20.255 23.5625H9.74497ZM20.3125 6.5625C20.3125 5.9757 19.8368 5.5 19.25 5.5C18.6632 5.5 18.1875 5.9757 18.1875 6.5625V15.0625C18.1875 15.6493 18.6632 16.125 19.25 16.125C19.8368 16.125 20.3125 15.6493 20.3125 15.0625V6.5625ZM16.0625 9.75C16.0625 9.1632 15.5868 8.6875 15 8.6875C14.4132 8.6875 13.9375 9.1632 13.9375 9.75V15.0625C13.9375 15.6493 14.4132 16.125 15 16.125C15.5868 16.125 16.0625 15.6493 16.0625 15.0625V9.75ZM11.8125 12.9375C11.8125 12.3507 11.3368 11.875 10.75 11.875C10.1632 11.875 9.6875 12.3507 9.6875 12.9375V15.0625C9.6875 15.6493 10.1632 16.125 10.75 16.125C11.3368 16.125 11.8125 15.6493 11.8125 15.0625V12.9375Z" fill="#CAFF33"/>
</svg>
