<svg width="53" height="53" viewBox="0 0 53 53" fill="none" xmlns="http://www.w3.org/2000/svg">
<rect x="0.333496" y="0.5" width="52" height="52" rx="26" fill="#CAFF33"/>
<path fill-rule="evenodd" clip-rule="evenodd" d="M22.5835 18.25L33.8335 18.25C34.0324 18.25 34.2232 18.329 34.3638 18.4697C34.5045 18.6103 34.5835 18.8011 34.5835 19V30.25C34.5835 30.6642 34.2477 31 33.8335 31C33.4193 31 33.0835 30.6642 33.0835 30.25V20.8107L19.3638 34.5303C19.0709 34.8232 18.5961 34.8232 18.3032 34.5303C18.0103 34.2374 18.0103 33.7626 18.3032 33.4697L32.0228 19.75L22.5835 19.75C22.1693 19.75 21.8335 19.4142 21.8335 19C21.8335 18.5858 22.1693 18.25 22.5835 18.25Z" fill="#141414"/>
</svg>
