<svg width="50" height="50" viewBox="0 0 50 50" fill="none" xmlns="http://www.w3.org/2000/svg">
<path d="M28.9276 34.416H21.1221V49.9993H28.9276V34.416Z" fill="#CAFF33"/>
<path d="M28.9276 0H21.1221V15.5833H28.9276V0Z" fill="#CAFF33"/>
<path d="M34.4097 21.0948V28.9004H49.993V21.0948H34.4097Z" fill="#CAFF33"/>
<path d="M0 21.1007L0 28.9062H15.5833V21.1007H0Z" fill="#CAFF33"/>
<path d="M34.4246 28.8772L28.9053 34.3965L39.9242 45.4155L45.4436 39.8961L34.4246 28.8772Z" fill="white"/>
<path d="M10.0906 4.54515L4.57129 10.0645L15.5903 21.0834L21.1096 15.5641L10.0906 4.54515Z" fill="white"/>
<path d="M28.886 15.5881L34.4053 21.1074L45.4243 10.0884L39.9049 4.56912L28.886 15.5881Z" fill="white"/>
<path d="M4.55736 39.9202L10.0767 45.4395L21.0956 34.4205L15.5763 28.9012L4.55736 39.9202Z" fill="white"/>
</svg>
