<svg width="52" height="53" viewBox="0 0 52 53" fill="none" xmlns="http://www.w3.org/2000/svg">
<rect y="0.866211" width="52" height="52" rx="26" fill="#CAFF33"/>
<path d="M21.5502 36.616C30.6045 36.616 35.5583 29.1127 35.5583 22.6078C35.5583 22.3969 35.5536 22.1813 35.5442 21.9703C36.5079 21.2734 37.3395 20.4102 38 19.4213C37.1025 19.8206 36.1496 20.0813 35.1739 20.1947C36.2013 19.5789 36.9705 18.6114 37.3391 17.4717C36.3726 18.0445 35.3156 18.4486 34.2134 18.6666C33.4708 17.8775 32.489 17.3551 31.4197 17.18C30.3504 17.005 29.2532 17.187 28.2977 17.6981C27.3423 18.2091 26.5818 19.0207 26.1338 20.0073C25.6859 20.9939 25.5754 22.1006 25.8195 23.1563C23.8625 23.0581 21.9479 22.5497 20.2 21.6641C18.452 20.7785 16.9097 19.5354 15.673 18.0155C15.0444 19.0992 14.8521 20.3816 15.135 21.6021C15.418 22.8225 16.1551 23.8894 17.1964 24.586C16.4146 24.5611 15.65 24.3506 14.9656 23.9719V24.0328C14.9649 25.1701 15.3581 26.2726 16.0783 27.1527C16.7985 28.0329 17.8013 28.6365 18.9162 28.861C18.1921 29.0591 17.432 29.088 16.6948 28.9453C17.0095 29.9234 17.6216 30.7789 18.4458 31.3923C19.27 32.0057 20.2651 32.3466 21.2923 32.3672C19.5484 33.7371 17.3942 34.4801 15.1766 34.4766C14.7833 34.476 14.3904 34.4519 14 34.4044C16.2529 35.8497 18.8735 36.6174 21.5502 36.616Z" fill="#262626"/>
</svg>
